<svg width="500" height="67" viewBox="0 0 500 67" fill="none" xmlns="http://www.w3.org/2000/svg">
<rect y="0.230469" width="500" height="66" rx="8" fill="url(#paint0_radial_1_236)"/>
<rect x="0.5" y="0.730469" width="499" height="65" rx="7.5" stroke="white" stroke-opacity="0.03"/>
<path d="M26.3807 27.5941H28.375L31.4148 32.8839H31.5398L34.5795 27.5941H36.5739L32.3523 34.6623V39.2305H30.6023V34.6623L26.3807 27.5941ZM39.8538 39.4066C39.0356 39.4066 38.3216 39.2191 37.7118 38.8441C37.1019 38.4691 36.6284 37.9445 36.2913 37.2702C35.9542 36.596 35.7856 35.8081 35.7856 34.9066C35.7856 34.0013 35.9542 33.2096 36.2913 32.5316C36.6284 31.8536 37.1019 31.3271 37.7118 30.9521C38.3216 30.5771 39.0356 30.3896 39.8538 30.3896C40.672 30.3896 41.386 30.5771 41.9959 30.9521C42.6057 31.3271 43.0792 31.8536 43.4163 32.5316C43.7534 33.2096 43.922 34.0013 43.922 34.9066C43.922 35.8081 43.7534 36.596 43.4163 37.2702C43.0792 37.9445 42.6057 38.4691 41.9959 38.8441C41.386 39.2191 40.672 39.4066 39.8538 39.4066ZM39.8595 37.9805C40.3898 37.9805 40.8292 37.8403 41.1777 37.56C41.5262 37.2797 41.7837 36.9066 41.9504 36.4407C42.1209 35.9748 42.2061 35.4615 42.2061 34.9009C42.2061 34.3441 42.1209 33.8327 41.9504 33.3668C41.7837 32.8971 41.5262 32.5202 41.1777 32.2362C40.8292 31.9521 40.3898 31.81 39.8595 31.81C39.3254 31.81 38.8822 31.9521 38.5299 32.2362C38.1815 32.5202 37.922 32.8971 37.7515 33.3668C37.5849 33.8327 37.5015 34.3441 37.5015 34.9009C37.5015 35.4615 37.5849 35.9748 37.7515 36.4407C37.922 36.9066 38.1815 37.2797 38.5299 37.56C38.8822 37.8403 39.3254 37.9805 39.8595 37.9805ZM50.8667 35.6112V30.5032H52.5713V39.2305H50.9008V37.7191H50.8099C50.6091 38.185 50.2872 38.5733 49.844 38.8839C49.4046 39.1907 48.8572 39.3441 48.2019 39.3441C47.6413 39.3441 47.1451 39.221 46.7133 38.9748C46.2853 38.7248 45.9481 38.3555 45.7019 37.8668C45.4595 37.3782 45.3383 36.774 45.3383 36.0543V30.5032H47.0372V35.8498C47.0372 36.4445 47.2019 36.918 47.5315 37.2702C47.861 37.6225 48.2891 37.7987 48.8156 37.7987C49.1338 37.7987 49.45 37.7191 49.7644 37.56C50.0826 37.4009 50.3459 37.1604 50.5542 36.8384C50.7663 36.5165 50.8705 36.1074 50.8667 35.6112ZM54.3739 39.2305V30.5032H56.016V31.8896H56.1069C56.266 31.4199 56.5463 31.0505 56.9478 30.7816C57.3531 30.5089 57.8114 30.3725 58.3228 30.3725C58.4288 30.3725 58.5538 30.3763 58.6978 30.3839C58.8455 30.3915 58.961 30.4009 59.0444 30.4123V32.0373C58.9762 32.0183 58.855 31.9975 58.6807 31.9748C58.5065 31.9483 58.3323 31.935 58.158 31.935C57.7565 31.935 57.3985 32.0202 57.0841 32.1907C56.7735 32.3574 56.5273 32.5903 56.3455 32.8896C56.1637 33.185 56.0728 33.5221 56.0728 33.9009V39.2305H54.3739ZM63.9253 39.2305V27.5941H71.2207V29.1055H65.681V32.6509H70.8401V34.1566H65.681V37.7191H71.2889V39.2305H63.9253ZM78.0916 33.5771V35.0487H72.9325V33.5771H78.0916ZM79.8758 39.2305V30.5032H81.5065V31.9237H81.6144C81.7962 31.4426 82.0936 31.0676 82.5065 30.7987C82.9194 30.5259 83.4137 30.3896 83.9894 30.3896C84.5728 30.3896 85.0614 30.5259 85.4553 30.7987C85.8531 31.0714 86.1466 31.4464 86.336 31.9237H86.4269C86.6353 31.4577 86.9667 31.0865 87.4212 30.81C87.8758 30.5297 88.4175 30.3896 89.0462 30.3896C89.8379 30.3896 90.4837 30.6377 90.9837 31.1339C91.4875 31.6301 91.7394 32.3782 91.7394 33.3782V39.2305H90.0406V33.5373C90.0406 32.9464 89.8796 32.5183 89.5576 32.2532C89.2356 31.988 88.8512 31.8555 88.4042 31.8555C87.8512 31.8555 87.4212 32.0259 87.1144 32.3668C86.8076 32.704 86.6542 33.1377 86.6542 33.668V39.2305H84.961V33.4293C84.961 32.9558 84.8133 32.5752 84.5178 32.2873C84.2224 31.9994 83.8379 31.8555 83.3644 31.8555C83.0425 31.8555 82.7451 31.9407 82.4724 32.1112C82.2034 32.2778 81.9856 32.5108 81.819 32.81C81.6561 33.1093 81.5747 33.4558 81.5747 33.8498V39.2305H79.8758ZM96.0762 39.4237C95.5232 39.4237 95.0232 39.3214 94.5762 39.1168C94.1292 38.9085 93.7751 38.6074 93.5137 38.2134C93.2561 37.8195 93.1273 37.3365 93.1273 36.7646C93.1273 36.2721 93.222 35.8668 93.4114 35.5487C93.6008 35.2305 93.8565 34.9786 94.1785 34.793C94.5004 34.6074 94.8603 34.4672 95.258 34.3725C95.6557 34.2778 96.061 34.2058 96.4739 34.1566C96.9967 34.096 97.4209 34.0468 97.7467 34.0089C98.0724 33.9672 98.3092 33.9009 98.4569 33.81C98.6046 33.7191 98.6785 33.5714 98.6785 33.3668V33.3271C98.6785 32.8308 98.5383 32.4464 98.258 32.1737C97.9815 31.9009 97.5686 31.7646 97.0194 31.7646C96.4474 31.7646 95.9967 31.8915 95.6671 32.1452C95.3413 32.3952 95.116 32.6737 94.991 32.9805L93.3944 32.6168C93.5838 32.0865 93.8603 31.6585 94.2239 31.3327C94.5913 31.0032 95.0137 30.7646 95.491 30.6168C95.9682 30.4653 96.4701 30.3896 96.9967 30.3896C97.3451 30.3896 97.7145 30.4312 98.1046 30.5146C98.4985 30.5941 98.866 30.7418 99.2069 30.9577C99.5516 31.1737 99.8338 31.4824 100.053 31.8839C100.273 32.2816 100.383 32.7987 100.383 33.435V39.2305H98.7239V38.0373H98.6557C98.5459 38.257 98.3811 38.4729 98.1614 38.685C97.9417 38.8971 97.6595 39.0733 97.3148 39.2134C96.9701 39.3536 96.5573 39.4237 96.0762 39.4237ZM96.4455 38.06C96.9152 38.06 97.3167 37.9672 97.6501 37.7816C97.9872 37.596 98.2429 37.3536 98.4171 37.0543C98.5951 36.7513 98.6842 36.4274 98.6842 36.0827V34.9577C98.6235 35.0183 98.5061 35.0752 98.3319 35.1282C98.1614 35.1774 97.9663 35.221 97.7467 35.2589C97.527 35.293 97.3129 35.3252 97.1046 35.3555C96.8963 35.382 96.722 35.4047 96.5819 35.4237C96.2523 35.4653 95.9512 35.5354 95.6785 35.6339C95.4095 35.7324 95.1936 35.8744 95.0307 36.06C94.8717 36.2418 94.7921 36.4843 94.7921 36.7873C94.7921 37.2077 94.9474 37.5259 95.258 37.7418C95.5686 37.954 95.9645 38.06 96.4455 38.06ZM102.166 39.2305V30.5032H103.865V39.2305H102.166ZM103.024 29.1566C102.728 29.1566 102.475 29.0581 102.262 28.8611C102.054 28.6604 101.95 28.4218 101.95 28.1452C101.95 27.8649 102.054 27.6263 102.262 27.4293C102.475 27.2286 102.728 27.1282 103.024 27.1282C103.319 27.1282 103.571 27.2286 103.779 27.4293C103.992 27.6263 104.098 27.8649 104.098 28.1452C104.098 28.4218 103.992 28.6604 103.779 28.8611C103.571 29.0581 103.319 29.1566 103.024 29.1566ZM107.369 27.5941V39.2305H105.67V27.5941H107.369Z" fill="#757575"/>
<rect x="357.92" y="9.73047" width="132.58" height="47" rx="2.5" fill="#36853A"/>
<rect x="357.92" y="9.73047" width="132.58" height="47" rx="2.5" stroke="#3C9541"/>
<path d="M391.635 31.2702C391.525 30.9255 391.378 30.6168 391.192 30.3441C391.01 30.0676 390.792 29.8327 390.539 29.6396C390.285 29.4426 389.995 29.293 389.669 29.1907C389.347 29.0884 388.993 29.0373 388.607 29.0373C387.951 29.0373 387.361 29.2058 386.834 29.543C386.307 29.8801 385.891 30.3744 385.584 31.0259C385.281 31.6737 385.129 32.4672 385.129 33.4066C385.129 34.3498 385.283 35.1471 385.59 35.7987C385.896 36.4502 386.317 36.9445 386.851 37.2816C387.385 37.6187 387.993 37.7873 388.675 37.7873C389.307 37.7873 389.859 37.6585 390.328 37.4009C390.802 37.1433 391.167 36.7797 391.425 36.31C391.686 35.8365 391.817 35.2797 391.817 34.6396L392.271 34.7248H388.942V33.2759H393.516V34.5998C393.516 35.5771 393.307 36.4255 392.891 37.1452C392.478 37.8612 391.906 38.4142 391.175 38.8043C390.448 39.1945 389.614 39.3896 388.675 39.3896C387.622 39.3896 386.698 39.1471 385.902 38.6623C385.111 38.1774 384.493 37.4899 384.05 36.5998C383.607 35.7058 383.385 34.6452 383.385 33.418C383.385 32.4899 383.514 31.6566 383.771 30.918C384.029 30.1793 384.391 29.5524 384.857 29.0373C385.326 28.5183 385.878 28.1225 386.51 27.8498C387.146 27.5733 387.842 27.435 388.595 27.435C389.224 27.435 389.809 27.5278 390.351 27.7134C390.896 27.899 391.381 28.1623 391.806 28.5032C392.234 28.8441 392.588 29.2494 392.868 29.7191C393.148 30.185 393.338 30.7021 393.436 31.2702H391.635ZM398.89 39.4066C398.03 39.4066 397.289 39.2229 396.668 38.8555C396.05 38.4843 395.573 37.9634 395.236 37.293C394.903 36.6187 394.736 35.829 394.736 34.9237C394.736 34.0297 394.903 33.2418 395.236 32.56C395.573 31.8782 396.043 31.346 396.645 30.9634C397.251 30.5808 397.96 30.3896 398.77 30.3896C399.263 30.3896 399.74 30.471 400.202 30.6339C400.664 30.7968 401.079 31.0524 401.446 31.4009C401.814 31.7494 402.104 32.2021 402.316 32.7589C402.528 33.3119 402.634 33.9843 402.634 34.7759V35.3782H395.696V34.1055H400.969C400.969 33.6585 400.878 33.2627 400.696 32.918C400.515 32.5695 400.259 32.2949 399.929 32.0941C399.604 31.8933 399.221 31.793 398.782 31.793C398.304 31.793 397.888 31.9104 397.532 32.1452C397.179 32.3763 396.907 32.6793 396.713 33.0543C396.524 33.4255 396.429 33.829 396.429 34.2646V35.2589C396.429 35.8422 396.532 36.3384 396.736 36.7475C396.944 37.1566 397.234 37.4691 397.605 37.685C397.977 37.8971 398.41 38.0032 398.907 38.0032C399.229 38.0032 399.522 37.9577 399.787 37.8668C400.052 37.7721 400.282 37.632 400.475 37.4464C400.668 37.2608 400.816 37.0316 400.918 36.7589L402.526 37.0487C402.397 37.5221 402.166 37.9369 401.833 38.293C401.503 38.6452 401.088 38.9199 400.588 39.1168C400.092 39.31 399.526 39.4066 398.89 39.4066ZM408.113 30.5032V31.8668H403.346V30.5032H408.113ZM404.624 28.4123H406.323V36.668C406.323 36.9975 406.372 37.2456 406.471 37.4123C406.569 37.5752 406.696 37.6869 406.851 37.7475C407.01 37.8043 407.183 37.8327 407.368 37.8327C407.505 37.8327 407.624 37.8233 407.726 37.8043C407.829 37.7854 407.908 37.7702 407.965 37.7589L408.272 39.1623C408.173 39.2002 408.033 39.238 407.851 39.2759C407.669 39.3176 407.442 39.3403 407.169 39.3441C406.722 39.3517 406.306 39.2721 405.919 39.1055C405.533 38.9388 405.221 38.6812 404.982 38.3327C404.743 37.9843 404.624 37.5468 404.624 37.0202V28.4123ZM419.749 30.6509C419.689 30.113 419.439 29.6964 418.999 29.4009C418.56 29.1017 418.007 28.9521 417.34 28.9521C416.863 28.9521 416.45 29.0278 416.101 29.1793C415.753 29.3271 415.482 29.5316 415.289 29.793C415.1 30.0505 415.005 30.3441 415.005 30.6737C415.005 30.9502 415.069 31.1888 415.198 31.3896C415.331 31.5903 415.503 31.7589 415.715 31.8952C415.931 32.0278 416.162 32.1396 416.408 32.2305C416.655 32.3176 416.891 32.3896 417.119 32.4464L418.255 32.7418C418.626 32.8327 419.007 32.9558 419.397 33.1112C419.787 33.2665 420.149 33.471 420.482 33.7248C420.816 33.9786 421.084 34.293 421.289 34.668C421.497 35.043 421.601 35.4918 421.601 36.0146C421.601 36.6737 421.431 37.2589 421.09 37.7702C420.753 38.2816 420.262 38.685 419.619 38.9805C418.978 39.2759 418.204 39.4237 417.295 39.4237C416.423 39.4237 415.67 39.2854 415.033 39.0089C414.397 38.7324 413.899 38.3403 413.539 37.8327C413.179 37.3214 412.98 36.7153 412.942 36.0146H414.704C414.738 36.435 414.874 36.7854 415.113 37.0657C415.355 37.3422 415.664 37.5487 416.039 37.685C416.418 37.8176 416.833 37.8839 417.283 37.8839C417.78 37.8839 418.221 37.8062 418.607 37.6509C418.997 37.4918 419.304 37.2721 419.528 36.9918C419.751 36.7077 419.863 36.3763 419.863 35.9975C419.863 35.6528 419.764 35.3706 419.567 35.1509C419.374 34.9312 419.111 34.7494 418.778 34.6055C418.448 34.4615 418.075 34.3346 417.658 34.2248L416.283 33.8498C415.351 33.596 414.613 33.2229 414.067 32.7305C413.526 32.238 413.255 31.5865 413.255 30.7759C413.255 30.1055 413.437 29.5202 413.8 29.0202C414.164 28.5202 414.656 28.132 415.278 27.8555C415.899 27.5752 416.6 27.435 417.38 27.435C418.168 27.435 418.863 27.5733 419.465 27.8498C420.071 28.1263 420.548 28.507 420.897 28.9918C421.245 29.4729 421.427 30.0259 421.442 30.6509H419.749ZM427.157 30.5032V31.8668H422.39V30.5032H427.157ZM423.668 28.4123H425.367V36.668C425.367 36.9975 425.416 37.2456 425.515 37.4123C425.613 37.5752 425.74 37.6869 425.896 37.7475C426.055 37.8043 426.227 37.8327 426.413 37.8327C426.549 37.8327 426.668 37.8233 426.771 37.8043C426.873 37.7854 426.952 37.7702 427.009 37.7589L427.316 39.1623C427.218 39.2002 427.077 39.238 426.896 39.2759C426.714 39.3176 426.487 39.3403 426.214 39.3441C425.767 39.3517 425.35 39.2721 424.964 39.1055C424.577 38.9388 424.265 38.6812 424.026 38.3327C423.788 37.9843 423.668 37.5468 423.668 37.0202V28.4123ZM431.096 39.4237C430.543 39.4237 430.043 39.3214 429.596 39.1168C429.149 38.9085 428.795 38.6074 428.534 38.2134C428.276 37.8195 428.147 37.3365 428.147 36.7646C428.147 36.2721 428.242 35.8668 428.431 35.5487C428.621 35.2305 428.876 34.9786 429.198 34.793C429.52 34.6074 429.88 34.4672 430.278 34.3725C430.676 34.2778 431.081 34.2058 431.494 34.1566C432.016 34.096 432.441 34.0468 432.766 34.0089C433.092 33.9672 433.329 33.9009 433.477 33.81C433.624 33.7191 433.698 33.5714 433.698 33.3668V33.3271C433.698 32.8308 433.558 32.4464 433.278 32.1737C433.001 31.9009 432.588 31.7646 432.039 31.7646C431.467 31.7646 431.016 31.8915 430.687 32.1452C430.361 32.3952 430.136 32.6737 430.011 32.9805L428.414 32.6168C428.604 32.0865 428.88 31.6585 429.244 31.3327C429.611 31.0032 430.034 30.7646 430.511 30.6168C430.988 30.4653 431.49 30.3896 432.016 30.3896C432.365 30.3896 432.734 30.4312 433.124 30.5146C433.518 30.5941 433.886 30.7418 434.227 30.9577C434.571 31.1737 434.854 31.4824 435.073 31.8839C435.293 32.2816 435.403 32.7987 435.403 33.435V39.2305H433.744V38.0373H433.676C433.566 38.257 433.401 38.4729 433.181 38.685C432.962 38.8971 432.679 39.0733 432.335 39.2134C431.99 39.3536 431.577 39.4237 431.096 39.4237ZM431.465 38.06C431.935 38.06 432.337 37.9672 432.67 37.7816C433.007 37.596 433.263 37.3536 433.437 37.0543C433.615 36.7513 433.704 36.4274 433.704 36.0827V34.9577C433.643 35.0183 433.526 35.0752 433.352 35.1282C433.181 35.1774 432.986 35.221 432.766 35.2589C432.547 35.293 432.333 35.3252 432.124 35.3555C431.916 35.382 431.742 35.4047 431.602 35.4237C431.272 35.4653 430.971 35.5354 430.698 35.6339C430.429 35.7324 430.213 35.8744 430.051 36.06C429.891 36.2418 429.812 36.4843 429.812 36.7873C429.812 37.2077 429.967 37.5259 430.278 37.7418C430.588 37.954 430.984 38.06 431.465 38.06ZM437.186 39.2305V30.5032H438.828V31.8896H438.919C439.078 31.4199 439.358 31.0505 439.759 30.7816C440.165 30.5089 440.623 30.3725 441.134 30.3725C441.241 30.3725 441.366 30.3763 441.51 30.3839C441.657 30.3915 441.773 30.4009 441.856 30.4123V32.0373C441.788 32.0183 441.667 31.9975 441.492 31.9748C441.318 31.9483 441.144 31.935 440.97 31.935C440.568 31.935 440.21 32.0202 439.896 32.1907C439.585 32.3574 439.339 32.5903 439.157 32.8896C438.975 33.185 438.884 33.5221 438.884 33.9009V39.2305H437.186ZM447.436 30.5032V31.8668H442.669V30.5032H447.436ZM443.947 28.4123H445.646V36.668C445.646 36.9975 445.695 37.2456 445.794 37.4123C445.892 37.5752 446.019 37.6869 446.174 37.7475C446.333 37.8043 446.506 37.8327 446.691 37.8327C446.828 37.8327 446.947 37.8233 447.049 37.8043C447.152 37.7854 447.231 37.7702 447.288 37.7589L447.595 39.1623C447.496 39.2002 447.356 39.238 447.174 39.2759C446.993 39.3176 446.765 39.3403 446.493 39.3441C446.046 39.3517 445.629 39.2721 445.243 39.1055C444.856 38.9388 444.544 38.6812 444.305 38.3327C444.066 37.9843 443.947 37.5468 443.947 37.0202V28.4123ZM452.503 39.4066C451.643 39.4066 450.902 39.2229 450.281 38.8555C449.664 38.4843 449.186 37.9634 448.849 37.293C448.516 36.6187 448.349 35.829 448.349 34.9237C448.349 34.0297 448.516 33.2418 448.849 32.56C449.186 31.8782 449.656 31.346 450.258 30.9634C450.864 30.5808 451.573 30.3896 452.383 30.3896C452.876 30.3896 453.353 30.471 453.815 30.6339C454.277 30.7968 454.692 31.0524 455.059 31.4009C455.427 31.7494 455.717 32.2021 455.929 32.7589C456.141 33.3119 456.247 33.9843 456.247 34.7759V35.3782H449.309V34.1055H454.582C454.582 33.6585 454.491 33.2627 454.309 32.918C454.128 32.5695 453.872 32.2949 453.542 32.0941C453.217 31.8933 452.834 31.793 452.395 31.793C451.917 31.793 451.501 31.9104 451.145 32.1452C450.792 32.3763 450.52 32.6793 450.326 33.0543C450.137 33.4255 450.042 33.829 450.042 34.2646V35.2589C450.042 35.8422 450.145 36.3384 450.349 36.7475C450.558 37.1566 450.847 37.4691 451.219 37.685C451.59 37.8971 452.023 38.0032 452.52 38.0032C452.842 38.0032 453.135 37.9577 453.4 37.8668C453.666 37.7721 453.895 37.632 454.088 37.4464C454.281 37.2608 454.429 37.0316 454.531 36.7589L456.139 37.0487C456.01 37.5221 455.779 37.9369 455.446 38.293C455.116 38.6452 454.701 38.9199 454.201 39.1168C453.705 39.31 453.139 39.4066 452.503 39.4066ZM460.919 39.4009C460.214 39.4009 459.586 39.221 459.033 38.8612C458.483 38.4975 458.052 37.9805 457.737 37.31C457.427 36.6358 457.271 35.8271 457.271 34.8839C457.271 33.9407 457.428 33.1339 457.743 32.4634C458.061 31.793 458.497 31.2797 459.05 30.9237C459.603 30.5676 460.23 30.3896 460.93 30.3896C461.472 30.3896 461.908 30.4805 462.237 30.6623C462.57 30.8403 462.828 31.0487 463.01 31.2873C463.195 31.5259 463.339 31.7362 463.442 31.918H463.544V27.5941H465.243V39.2305H463.584V37.8725H463.442C463.339 38.0581 463.192 38.2702 462.998 38.5089C462.809 38.7475 462.548 38.9558 462.214 39.1339C461.881 39.3119 461.449 39.4009 460.919 39.4009ZM461.294 37.9521C461.783 37.9521 462.195 37.8233 462.533 37.5657C462.873 37.3043 463.131 36.9426 463.305 36.4805C463.483 36.0183 463.572 35.4805 463.572 34.8668C463.572 34.2608 463.485 33.7305 463.311 33.2759C463.137 32.8214 462.881 32.4672 462.544 32.2134C462.207 31.9596 461.79 31.8327 461.294 31.8327C460.783 31.8327 460.356 31.9653 460.016 32.2305C459.675 32.4956 459.417 32.8574 459.243 33.3157C459.072 33.774 458.987 34.2911 458.987 34.8668C458.987 35.4502 459.074 35.9748 459.248 36.4407C459.423 36.9066 459.68 37.2759 460.021 37.5487C460.366 37.8176 460.79 37.9521 461.294 37.9521Z" fill="white"/>
<defs>
<radialGradient id="paint0_radial_1_236" cx="0" cy="0" r="1" gradientUnits="userSpaceOnUse" gradientTransform="translate(-113.25 8.36827) scale(543.55 151.028)">
<stop stop-color="#00E676" stop-opacity="0.16"/>
<stop offset="0.2197" stop-color="#6C63FF" stop-opacity="0.08"/>
<stop offset="0.9844" stop-color="#00E676" stop-opacity="0.03"/>
</radialGradient>
</defs>
</svg>
